# xmcd
# Track frame offsets:
# 150
# 12431
# 26340
# 39804
# 52351
# 67534
# 81209
# 94985
# 108735
# 123452
# 136993
# 151377
# 165315
# 179711
# 194122
# 206050
# 219105
# 232542
# 246101
# 258061
# 271168
# 284919
# 299601
# 314505
#
# Disc length: 4381 seconds
# Revision: 0
# Processed by: cddbd v1.4PL0 Copyright (c) Steve Scherf et al.
# Submitted via: VisiTrax 2.9.7.197 - For more info visit www.synapsa.com
#
DISCID=5f111b18
DTITLE=Johnson, Lonnie - Swing Out Rhythm
DYEAR=1999
DGENRE=Blues
TTITLE0=Mr. Johnson's Blues
TTITLE1=Life Saver Blues
TTITLE2=Sweet Potato Blues
TTITLE3=Toothache Blues - Part I
TTITLE4=Toothache Blues - Part II
TTITLE5=Two Tone Stomp
TTITLE6=Have to Change Keys
TTITLE7=Jet Black Blues
TTITLE8=Guitar Blues
TTITLE9=Hot Fingers
TTITLE10=She's Making Whoopee In Hell Tonight
TTITLE11=Uncle Ned Don't Lose Your Head
TTITLE12=Winnie The Wailer
TTITLE13=I'm Nuts About That Gal
TTITLE14=Swing Out Rhythm
TTITLE15=Why Women Go Wrong
TTITLE16=Jersey Belle Blues
TTITLE17=I'm Just Dumb
TTITLE18=Crowing Rooster Blues
TTITLE19=In Love Again
TTITLE20=Lazy Women Blues
TTITLE21=The Last Call
TTITLE22=He's A Jelly Roll Baker
TTITLE23=Watch Shorty
EXTD=Blue Boar Records, CDBB 1020 - CP018
EXTT0=
EXTT1=
EXTT2=
EXTT3=
EXTT4=
EXTT5=
EXTT6=
EXTT7=
EXTT8=
EXTT9=
EXTT10=
EXTT11=
EXTT12=
EXTT13=
EXTT14=
EXTT15=
EXTT16=
EXTT17=
EXTT18=
EXTT19=
EXTT20=
EXTT21=
EXTT22=
EXTT23=
PLAYORDER=
